<svg width="120" height="120" viewBox="0 0 120 120" fill="none" xmlns="http://www.w3.org/2000/svg">
<path d="M114.4 28.5C113.8 25.05 111.067 22.5 107.867 22.5H12.1333C8.93333 22.5 6.2 25.05 5.6 28.5L0 60V67.5C0 71.625 3 75 6.66667 75V112.5C6.66667 116.625 9.66667 120 13.3333 120H66.6667C70.3333 120 73.3333 116.625 73.3333 112.5V75H100V112.5C100 116.625 103 120 106.667 120C110.333 120 113.333 116.625 113.333 112.5V75C117 75 120 71.625 120 67.5V60L114.4 28.5ZM60 105H20V75H60V105ZM13.3333 15H106.667C110.333 15 113.333 11.625 113.333 7.5C113.333 3.375 110.333 0 106.667 0H13.3333C9.66667 0 6.66667 3.375 6.66667 7.5C6.66667 11.625 9.66667 15 13.3333 15Z" fill="black"/>
</svg>
