<svg width="16" height="16" viewBox="0 0 16 16" fill="none" xmlns="http://www.w3.org/2000/svg">
<path d="M10.5938 13H5.40625C4.91667 12.6562 4.45312 12.2604 4.01562 11.8125C3.66146 11.9375 3.32292 12 3 12C2.16667 12 1.45833 11.7057 0.875 11.1172C0.291667 10.5286 0 9.82292 0 9C0 8.34375 0.192708 7.75781 0.578125 7.24219C0.963542 6.72656 1.45833 6.36458 2.0625 6.15625C2.07292 6.09375 2.07812 6.04167 2.07812 6H13.9219C13.974 6.36458 14 7.03125 14 8C14 8.46875 13.8906 8.95833 13.6719 9.46875C13.4531 9.97917 13.1667 10.4531 12.8125 10.8906C12.4583 11.3281 12.0964 11.7214 11.7266 12.0703C11.3568 12.4193 10.9792 12.7292 10.5938 13ZM2 8C2 7.84375 2.00521 7.59896 2.01562 7.26562C1.70312 7.44271 1.45573 7.6849 1.27344 7.99219C1.09115 8.29948 1 8.63542 1 9C1 9.55208 1.19531 10.0234 1.58594 10.4141C1.97656 10.8047 2.44792 11 3 11C3.04167 11 3.125 10.9896 3.25 10.9688C2.41667 9.91667 2 8.92708 2 8ZM9 3C9 3.23958 9.04688 3.52604 9.14062 3.85938C9.54688 4.15104 9.8125 4.53125 9.9375 5H8.9375C8.91667 4.85417 8.89062 4.72917 8.85938 4.625C8.28646 4.22917 8 3.6875 8 3C8 2.44792 8.19531 1.97656 8.58594 1.58594C8.97656 1.19531 9.44792 1 10 1C10.1562 1 10.3229 1.02083 10.5 1.0625C10.0625 1.17708 9.70312 1.41146 9.42188 1.76562C9.14062 2.11979 9 2.53125 9 3ZM6 2C6 2.23958 6.04688 2.52604 6.14062 2.85938C6.71354 3.26562 7 3.8125 7 4.5C7 4.64583 6.97396 4.8125 6.92188 5H5.9375C5.97917 4.8125 6 4.64583 6 4.5C6 4.25 5.95312 3.95833 5.85938 3.625C5.28646 3.22917 5 2.6875 5 2C5 1.44792 5.19531 0.976562 5.58594 0.585938C5.97656 0.195312 6.44792 0 7 0C7.15625 0 7.32292 0.0208333 7.5 0.0625C7.0625 0.177083 6.70312 0.411458 6.42188 0.765625C6.14062 1.11979 6 1.53125 6 2ZM12 16H4C3.42708 16 2.82292 15.888 2.1875 15.6641C1.55208 15.4401 1.02865 15.1693 0.617188 14.8516C0.205729 14.5339 0 14.25 0 14H16C16 14.25 15.7943 14.5339 15.3828 14.8516C14.9714 15.1693 14.4479 15.4401 13.8125 15.6641C13.1771 15.888 12.5729 16 12 16Z" fill="black"/>
</svg>
