<svg width="100" height="100" viewBox="0 0 100 100" fill="none" xmlns="http://www.w3.org/2000/svg">
<path d="M96.8672 71.2656C96.7406 34.4531 65.4703 3.25 28.5812 3.13281L26.3063 3.125L25.7594 5.33438L4.27812 92.2094L3.125 96.875L7.78906 95.7125L94.6719 74.0859L96.875 73.5359L96.8672 71.2656ZM53.4547 81.3625C52.1297 77.8141 49.1453 74.8281 44.6594 75.9656C40.9547 76.9031 38.4578 81.2172 39.4531 84.8469L7.09063 92.9031L25.975 16.525C55.3656 20.9844 78.9938 44.6063 83.4625 73.8922L53.4547 81.3625Z" fill="black"/>
<path d="M23.3187 63.4406C24.4998 63.4448 25.67 63.215 26.7618 62.7645C27.8536 62.3139 28.8453 61.6515 29.6796 60.8156C30.5151 59.9832 31.1777 58.9938 31.629 57.9042C32.0803 56.8146 32.3115 55.6465 32.3093 54.4672C32.3114 53.2885 32.0801 52.1211 31.6288 51.0323C31.1775 49.9435 30.515 48.9549 29.6796 48.1234C29.0062 47.4531 27.8234 47.45 27.1531 48.1234C26.8196 48.4581 26.6325 48.9114 26.6328 49.3839C26.6331 49.8564 26.8208 50.3094 27.1546 50.6437C28.175 51.6609 28.739 53.0234 28.739 54.4687C28.739 55.914 28.1796 57.275 27.1578 58.2922C25.1078 60.3328 21.5296 60.3328 19.4875 58.2953C19.1485 57.9684 18.6959 57.7857 18.225 57.7857C17.754 57.7857 17.3014 57.9684 16.9625 58.2953C16.7971 58.4605 16.6659 58.6568 16.5764 58.8728C16.487 59.0888 16.441 59.3204 16.4412 59.5542C16.4413 59.788 16.4876 60.0195 16.5773 60.2354C16.667 60.4513 16.7984 60.6474 16.964 60.8125C17.7969 61.6489 18.7874 62.3118 19.8782 62.7629C20.9689 63.214 22.1383 63.4443 23.3187 63.4406Z" fill="black"/>
<path d="M49.2517 39.3469C48.9887 40.4563 48.9818 41.611 49.2313 42.7234C49.5502 44.1355 50.2595 45.4295 51.2784 46.4578C52.2973 47.4861 53.5848 48.2073 54.9938 48.5391C55.4115 48.6347 55.8499 48.5611 56.2135 48.3345C56.5771 48.1079 56.8363 47.7467 56.9345 47.3297C57.0176 46.9136 56.9385 46.4815 56.7133 46.1219C56.4882 45.7623 56.1341 45.5023 55.7235 45.3953C53.4251 44.8625 51.8563 42.3937 52.4001 40.075C52.668 38.9288 53.3801 37.9359 54.3798 37.3145C55.3794 36.6931 56.5849 36.4939 57.7313 36.7609C58.1517 36.8578 58.5876 36.7875 58.9516 36.5578C59.3173 36.3297 59.5751 35.9719 59.6688 35.55C59.7235 35.3156 59.7267 35.0734 59.6751 34.8375C59.6075 34.5411 59.4582 34.2695 59.2442 34.0536C59.0302 33.8376 58.7599 33.6859 58.4641 33.6156C57.4823 33.3846 56.4643 33.3511 55.4694 33.5172C54.4744 33.6832 53.5225 34.0455 52.6688 34.5828C51.8115 35.1103 51.0678 35.8032 50.4811 36.6211C49.8944 37.4391 49.4764 38.3657 49.2517 39.3469Z" fill="black"/>
<path d="M63.5047 66.811C62.4608 66.5277 61.3665 66.4834 60.3031 66.6813C58.9562 66.9318 57.7069 67.5561 56.6979 68.4828C55.6889 69.4094 54.9608 70.6012 54.5968 71.9219C54.5451 72.1156 54.5321 72.3176 54.5584 72.5164C54.5848 72.7151 54.65 72.9067 54.7504 73.0803C54.8508 73.2538 54.9844 73.4058 55.1436 73.5277C55.3028 73.6496 55.4844 73.739 55.6781 73.7907C56.069 73.8856 56.4815 73.8268 56.8304 73.6265C57.1792 73.4262 57.4379 73.0996 57.5531 72.7141C58.1359 70.5641 60.5281 69.1704 62.7031 69.761C63.2368 69.9028 63.737 70.1492 64.1747 70.4858C64.6124 70.8224 64.979 71.2426 65.2531 71.7219C65.8109 72.6938 65.9609 73.8235 65.6687 74.9032C65.6007 75.1527 65.5973 75.4154 65.6589 75.6665C65.7205 75.9177 65.845 76.149 66.0207 76.3388C66.1963 76.5285 66.4174 76.6704 66.6631 76.7511C66.9088 76.8318 67.171 76.8487 67.425 76.8001C67.7087 76.7473 67.9719 76.616 68.1846 76.4209C68.3973 76.2259 68.551 75.975 68.6281 75.6969C68.878 74.778 68.9433 73.8187 68.8202 72.8744C68.6971 71.9301 68.388 71.0195 67.9109 70.1954C67.4357 69.3687 66.8018 68.6441 66.0456 68.0633C65.2894 67.4825 64.4259 67.0569 63.5047 66.811Z" fill="black"/>
<path d="M57.5781 55.5437C55.5515 49.6125 49.0452 46.4172 43.0281 48.4062C37.014 50.3984 33.7734 56.825 35.7937 62.75C37.8156 68.6906 44.3249 71.8797 50.3468 69.8875C56.3515 67.9 59.5921 61.4734 57.5781 55.5437Z" fill="black"/>
<path d="M62.5 60.9781C63.7141 64.5391 67.6265 66.4594 71.25 65.2625C74.8594 64.0625 76.8015 60.2062 75.5953 56.6422C74.3781 53.0812 70.4625 51.1609 66.8547 52.3516C63.239 53.5516 61.2922 57.4094 62.5 60.9781Z" fill="black"/>
<path d="M28.0233 36.5562C29.6827 41.4109 35.0077 44.0219 39.9296 42.389C44.8405 40.7609 47.4937 35.5031 45.8452 30.6547C44.1843 25.8094 38.864 23.1984 33.9421 24.825C29.0327 26.45 26.3796 31.7078 28.0233 36.5562Z" fill="black"/>
<path d="M32.2015 71.2219C30.489 66.2281 25.0047 63.5359 19.939 65.2031C14.8859 66.8859 12.1562 72.2938 13.8515 77.2844C15.55 82.2938 21.0297 84.9766 26.1093 83.2984C31.1656 81.6188 33.8937 76.2109 32.2015 71.2219Z" fill="black"/>
</svg>
