<svg width="120" height="100" viewBox="0 0 120 100" fill="none" xmlns="http://www.w3.org/2000/svg">
<path d="M105 13.617H32.1094L31.4062 11.0638C30.625 7.80142 28.8672 5.14184 26.1328 3.08511C23.3984 1.02837 20.1562 0 16.4062 0H4.92188C3.51562 0 2.34375 0.425532 1.40625 1.2766C0.46875 2.12766 0 3.26241 0 4.68085C0 5.95745 0.46875 7.02128 1.40625 7.87234C2.34375 8.7234 3.51562 9.14894 4.92188 9.14894H16.4062C19.375 9.14894 21.0938 10.3546 21.5625 12.766L33.0469 67.234C33.9844 70.2128 35.8203 72.6241 38.5547 74.4681C41.2891 76.3121 44.2969 77.234 47.5781 77.234H94.9219C96.4844 77.234 97.7344 76.8085 98.6719 75.9575C99.6094 75.1064 100.078 74.0426 100.078 72.766C100.078 69.6454 98.3594 68.0851 94.9219 68.0851H47.5781C45.3906 68.0851 43.8281 67.234 42.8906 65.5319L42.4219 63.617H92.5781C95.7031 63.617 98.5547 62.766 101.133 61.0638C103.711 59.3617 105.469 57.1631 106.406 54.4681L120 28.2979V27.234C120 23.4043 118.555 20.1773 115.664 17.5532C112.773 14.9291 109.219 13.617 105 13.617ZM45 54.4681H40.5469L33.9844 22.766H45V54.4681ZM64.9219 54.4681H55.0781V22.766H64.9219V54.4681ZM85.0781 54.4681H75V22.766H85.0781V54.4681ZM97.5 50.8511V51.2766C97.0312 52.695 96.1719 53.617 94.9219 54.0426V22.766H105C107.812 22.766 109.453 23.9716 109.922 26.383L97.5 50.8511ZM60 90.8511C60 93.4043 59.0234 95.5674 57.0703 97.3404C55.1172 99.1135 52.7344 100 49.9219 100C47.2656 100 44.9609 99.1135 43.0078 97.3404C41.0547 95.5674 40.0781 93.4043 40.0781 90.8511C40.0781 88.2979 41.0547 86.1348 43.0078 84.3617C44.9609 82.5887 47.2656 81.7021 49.9219 81.7021C52.7344 81.7021 55.1172 82.5887 57.0703 84.3617C59.0234 86.1348 60 88.2979 60 90.8511ZM100.078 90.8511C100.078 93.4043 99.1016 95.5674 97.1484 97.3404C95.1953 99.1135 92.8125 100 90 100C87.1875 100 84.8047 99.1135 82.8516 97.3404C80.8984 95.5674 79.9219 93.4043 79.9219 90.8511C79.9219 88.2979 80.8984 86.1348 82.8516 84.3617C84.8047 82.5887 87.1875 81.7021 90 81.7021C92.8125 81.7021 95.1953 82.5887 97.1484 84.3617C99.1016 86.1348 100.078 88.2979 100.078 90.8511Z" fill="black"/>
</svg>
